<?xml version="1.0" encoding="UTF-8"?>
<!DOCTYPE svg PUBLIC "-//W3C//DTD SVG 1.1//EN" "http://www.w3.org/Graphics/SVG/1.1/DTD/svg11.dtd">
<!-- Creator: CorelDRAW -->
<svg xmlns="http://www.w3.org/2000/svg" xml:space="preserve" width="6.82666in" height="6.82666in" style="shape-rendering:geometricPrecision; text-rendering:geometricPrecision; image-rendering:optimizeQuality; fill-rule:evenodd; clip-rule:evenodd"
viewBox="0 0 6.82666 6.82666"
 xmlns:xlink="http://www.w3.org/1999/xlink"
 version="1.1">
 <defs>
  <style type="text/css">
   <![CDATA[
    .fil6 {fill:none}
    .fil5 {fill:#1B75BC}
    .fil4 {fill:#39B54A}
    .fil1 {fill:#A7BDC6}
    .fil2 {fill:#BE1E2D}
    .fil0 {fill:#DDE2E4}
    .fil3 {fill:#FFDE17}
   ]]>
  </style>
 </defs>
 <g id="Layer_x0020_1">
  <metadata id="CorelCorpID_0Corel-Layer"/>
  <g id="_686995560">
   <g id="Guides">
   </g>
   <g id="Layer_2">
   </g>
   <g id="Layer_3">
   </g>
   <g id="Layer_4">
   </g>
   <g id="Layer_5">
   </g>
   <g id="Layer_6">
   </g>
   <g id="Layer_7">
   </g>
   <g id="Layer_8">
   </g>
   <g id="Layer_9">
   </g>
   <g id="Layer_10">
   </g>
   <g id="Layer_11">
   </g>
   <g id="Layer_12">
   </g>
   <g id="Layer_13">
   </g>
   <g id="Layer_14">
   </g>
   <g id="Layer_15">
   </g>
   <g id="Layer_16">
   </g>
   <g id="Layer_17">
    <g>
     <g>
      <g>
       <rect id="_686997048" class="fil0" x="0.957201" y="2.07287" width="4.91226" height="3.17646"/>
      </g>
      <g>
       <g>
        <rect id="_686996568" class="fil1" x="0.957201" y="1.57734" width="4.91226" height="0.495531"/>
       </g>
       <g>
        <g>
         <path id="_686996856" class="fil2" d="M1.36733 1.90354l-0.0791299 0c-0.0392008,0 -0.0709685,-0.0317677 -0.0709685,-0.0709685l0 -0.00333465c0,-0.0392008 0.0317677,-0.0709685 0.0709685,-0.0709685l0.0791299 3.93701e-006c0.0392008,0 0.0709685,0.0317677 0.0709685,0.0709685l0 0.00333465c0,0.0391969 -0.0317677,0.0709646 -0.0709685,0.0709646z"/>
        </g>
        <g>
         <path id="_686996808" class="fil3" d="M1.7153 1.90354l-0.0791339 0c-0.0392008,0 -0.0709685,-0.0317677 -0.0709685,-0.0709685l0 -0.00333465c0,-0.0392008 0.0317677,-0.0709685 0.0709685,-0.0709685l0.0791339 3.93701e-006c0.0392008,0 0.0709685,0.0317677 0.0709685,0.0709685l0 0.00333465c3.14961e-005,0.0391969 -0.0317677,0.0709646 -0.0709685,0.0709646z"/>
        </g>
        <g>
         <path id="_686996760" class="fil4" d="M2.0633 1.90354l-0.0791339 0c-0.0392008,0 -0.0709685,-0.0317677 -0.0709685,-0.0709685l0 -0.00333465c0,-0.0392008 0.0317677,-0.0709685 0.0709685,-0.0709685l0.0791339 3.93701e-006c0.0392008,0 0.0709685,0.0317677 0.0709685,0.0709685l0 0.00333465c-3.93701e-006,0.0391969 -0.0317677,0.0709646 -0.0709685,0.0709646z"/>
        </g>
       </g>
      </g>
     </g>
     <g>
      <g>
       <g>
        <path id="_686997168" class="fil5" d="M2.9823 3.969c-0.0127992,0 -0.0255984,-0.00486614 -0.0353661,-0.0146339l-0.229067 -0.229134c-0.0195315,-0.0195315 -0.0195315,-0.0511654 0,-0.0707008l0.229067 -0.229134c0.0195315,-0.0195315 0.0511654,-0.0195315 0.0707008,0 0.0195315,0.0195315 0.0195315,0.0511654 0,0.0707008l-0.193732 0.193768 0.193732 0.193768c0.0195315,0.0195315 0.0195315,0.0512008 0,0.0707008 -0.00973622,0.00979921 -0.0225354,0.0146654 -0.0353346,0.0146654z"/>
       </g>
       <g>
        <path id="_686996448" class="fil5" d="M3.84436 3.969c-0.0127992,0 -0.0255984,-0.00486614 -0.0353661,-0.0146339 -0.0195315,-0.0195315 -0.0195315,-0.0512008 0,-0.0707008l0.193732 -0.193768 -0.193732 -0.193768c-0.0195315,-0.0195315 -0.0195315,-0.0512008 0,-0.0707008 0.0195315,-0.0195315 0.0512008,-0.0195315 0.0707008,0l0.229067 0.229134c0.0195315,0.0195315 0.0195315,0.0511654 0,0.0707008l-0.229067 0.229134c-0.00973228,0.00973622 -0.0225315,0.0146024 -0.0353346,0.0146024z"/>
       </g>
       <g>
        <path id="_686995992" class="fil5" d="M3.2981 4.27296c-0.004,0 -0.00809843,-0.0005 -0.0121654,-0.0015 -0.0267992,-0.00670079 -0.0430669,-0.0338346 -0.0364016,-0.0606339l0.264461 -1.05813c0.00670079,-0.0267992 0.0338346,-0.0430669 0.0606339,-0.0364016 0.0267992,0.00670079 0.0430669,0.0338346 0.0364016,0.0606339l-0.264461 1.05813c-0.00570472,0.0227323 -0.0260709,0.0379016 -0.0484685,0.0379016z"/>
       </g>
      </g>
     </g>
    </g>
   </g>
   <g id="Layer_18">
   </g>
   <g id="Layer_19">
   </g>
   <g id="Layer_20">
   </g>
   <g id="Layer_21">
   </g>
   <g id="Layer_22">
   </g>
   <g id="Layer_23">
   </g>
   <g id="Layer_24">
   </g>
   <g id="Layer_25">
   </g>
   <g id="Layer_26">
   </g>
  </g>
 </g>
 <rect class="fil6" width="6.82666" height="6.82666"/>
</svg>
