<?xml version="1.0" encoding="utf-8"?>
<!-- Generator: Adobe Illustrator 16.0.0, SVG Export Plug-In . SVG Version: 6.00 Build 0)  -->
<!DOCTYPE svg PUBLIC "-//W3C//DTD SVG 1.1//EN" "http://www.w3.org/Graphics/SVG/1.1/DTD/svg11.dtd">
<svg version="1.1" id="Layer_1" xmlns="http://www.w3.org/2000/svg" xmlns:xlink="http://www.w3.org/1999/xlink" x="0px" y="0px"
	 width="64px" height="64px" viewBox="0 0 128 128" enable-background="new 0 0 128 128" xml:space="preserve">
<g>
	<g>
		<g>
			<g>
				<path fill="#282D33" d="M55.926,128h-4v-13.238H35.618c-7.476,0-13.558-6.032-13.558-13.447V86.561H10.618l15.32-26.271
					c-0.017-0.471-0.029-0.942-0.029-1.416c0-24.504,20.129-44.44,44.873-44.44v4c-22.538,0-40.873,18.141-40.873,40.44
					c0,0.613,0.022,1.223,0.049,1.832l0.026,0.586L17.582,82.561h8.478v18.754c0,5.209,4.288,9.447,9.558,9.447h20.308V128z"/>
			</g>
			<g>
				<path fill="#282D33" d="M103.125,128h-4V88.019l0.592-0.587c7.695-7.637,11.934-17.778,11.934-28.558
					c0-5.459-1.08-10.752-3.209-15.73l3.678-1.573c2.344,5.479,3.531,11.3,3.531,17.304c0,11.574-4.441,22.479-12.525,30.8V128z"/>
			</g>
		</g>
		<g>
			<path fill="#282D33" d="M75.715,93.339l-12.933-0.001l-0.744-8.827c-2.177-0.641-4.253-1.547-6.2-2.706l-6.582,5.51l-9.159-9.07
				l5.784-6.765c-1.072-1.964-1.887-4.049-2.436-6.228l-8.597-0.71V51.694l8.922-0.736c0.647-2.149,1.557-4.195,2.718-6.112
				l-5.575-6.518l9.162-9.07l6.826,5.718c1.996-1.07,4.112-1.882,6.32-2.427l0.715-8.506h12.935l0.742,8.829
				c2.176,0.641,4.252,1.547,6.201,2.706l6.576-5.51l9.164,9.07l-5.781,6.764c1.072,1.971,1.889,4.056,2.436,6.229l8.596,0.709
				v12.849l-8.922,0.734c-0.646,2.148-1.557,4.195-2.719,6.113l5.572,6.519l-9.166,9.068l-6.822-5.719
				c-1.992,1.069-4.107,1.882-6.318,2.428L75.715,93.339z M66.459,89.338l5.578,0.001l0.66-7.828l1.494-0.282
				c2.762-0.522,5.365-1.518,7.736-2.959l1.227-0.744l6.195,5.192l3.932-3.891l-5.121-5.991l0.871-1.266
				c1.568-2.281,2.695-4.804,3.35-7.496l0.34-1.403l8.086-0.667v-5.481L92.9,55.871l-0.287-1.492
				c-0.521-2.716-1.523-5.289-2.98-7.648l-0.768-1.241l5.234-6.125l-3.932-3.892l-6.053,5.072l-1.246-0.837
				c-2.32-1.557-4.875-2.675-7.592-3.321l-1.408-0.335l-0.674-8.009h-5.58l-0.658,7.83l-1.495,0.282
				c-2.756,0.52-5.36,1.515-7.74,2.958l-1.224,0.743l-6.197-5.191l-3.93,3.89l5.125,5.991l-0.871,1.266
				c-1.567,2.28-2.694,4.802-3.35,7.497l-0.341,1.402l-8.086,0.667v5.48l7.906,0.653l0.287,1.49
				c0.525,2.729,1.529,5.301,2.982,7.646l0.771,1.242l-5.24,6.128l3.929,3.891l6.062-5.073l1.248,0.84
				c2.312,1.558,4.863,2.674,7.582,3.318l1.409,0.334L66.459,89.338z"/>
		</g>
		<g>
			<path fill="#282D33" d="M69.826,70.855c-6.763,0-12.266-5.457-12.266-12.166c0-6.708,5.502-12.165,12.266-12.165
				c6.764,0,12.266,5.457,12.266,12.165C82.092,65.398,76.59,70.855,69.826,70.855z M69.826,50.525
				c-4.558,0-8.266,3.663-8.266,8.165s3.708,8.166,8.266,8.166c4.559,0,8.266-3.663,8.266-8.166S74.385,50.525,69.826,50.525z"/>
		</g>
	</g>
	<g>
		<g>
			<path fill="#282D33" d="M102.021,26.025c-5.336,0-9.678-4.308-9.678-9.602s4.342-9.602,9.678-9.602s9.678,4.308,9.678,9.602
				S107.357,26.025,102.021,26.025z M102.021,10.821c-3.131,0-5.678,2.513-5.678,5.602s2.547,5.602,5.678,5.602
				s5.678-2.513,5.678-5.602S105.152,10.821,102.021,10.821z"/>
		</g>
		<g>
			<g>
				<rect x="100.021" fill="#282D33" width="4" height="7.186"/>
			</g>
			<g>
				<rect x="100.021" y="25.664" fill="#282D33" width="4" height="7.185"/>
			</g>
		</g>
		<g>
			<g>
				
					<rect x="87.174" y="8.008" transform="matrix(0.8681 0.4964 -0.4964 0.8681 16.9451 -43.7511)" fill="#282D33" width="7.242" height="4.001"/>
			</g>
			<g>
				
					<rect x="109.624" y="20.84" transform="matrix(0.8681 0.4963 -0.4963 0.8681 26.2673 -53.1927)" fill="#282D33" width="7.242" height="4"/>
			</g>
		</g>
		<g>
			<g>
				
					<rect x="88.795" y="19.219" transform="matrix(0.4965 0.868 -0.868 0.4965 65.5406 -67.3131)" fill="#282D33" width="4.001" height="7.242"/>
			</g>
			<g>
				
					<rect x="111.246" y="6.387" transform="matrix(0.4965 0.868 -0.868 0.4965 65.7064 -93.2621)" fill="#282D33" width="4.001" height="7.242"/>
			</g>
		</g>
	</g>
</g>
</svg>
