<svg xmlns="http://www.w3.org/2000/svg" viewBox="0 0 512 512" style="enable-background:new 0 0 512 512" xml:space="preserve"><path style="fill:#00c3ff" d="M397.094 187.591c-4.224 0-8.371.31-12.467.786C360.284 142.171 311.855 110.63 256 110.63s-104.284 31.541-128.627 77.746c-4.096-.477-8.242-.786-12.467-.786-59.034 0-106.889 47.855-106.889 106.889S55.872 401.37 114.906 401.37h282.188c59.034 0 106.889-47.855 106.889-106.889s-47.855-106.89-106.889-106.89z"/><path style="fill:#00aaf0" d="M375.716 367.165H194.967c-58.782 0-108.901-46.14-109.972-104.911-.526-28.857 10.477-55.076 28.595-74.597-59.229.723-106.877 49.559-105.546 109.265C9.353 355.586 59.733 401.37 118.412 401.37h257.304c9.446 0 17.102-7.656 17.102-17.102 0-9.447-7.656-17.103-17.102-17.103z"/><path d="M397.094 179.574c-2.556 0-5.197.104-7.982.315-27.347-47.805-77.859-77.276-133.111-77.276s-105.765 29.47-133.111 77.276a104.908 104.908 0 0 0-7.982-.315C51.546 179.574 0 231.12 0 294.48s51.546 114.906 114.906 114.906h282.188C460.454 409.386 512 357.84 512 294.48s-51.546-114.906-114.906-114.906zm0 213.779H114.906c-54.519 0-98.873-44.354-98.873-98.873s44.354-98.873 98.873-98.873c3.529 0 7.304.239 11.54.732a8.019 8.019 0 0 0 8.019-4.226c23.874-45.316 70.443-73.466 121.535-73.466s97.662 28.15 121.535 73.466a8.012 8.012 0 0 0 8.019 4.226c4.236-.493 8.01-.732 11.54-.732 54.519 0 98.873 44.354 98.873 98.873s-44.354 98.873-98.873 98.873z"/><path d="M256 152.852c35.353 0 67.854 17.801 86.942 47.618a8.01 8.01 0 0 0 11.074 2.43 8.018 8.018 0 0 0 2.43-11.074c-22.049-34.445-59.598-55.008-100.445-55.008-12.521 0-24.858 1.935-36.668 5.75a8.016 8.016 0 1 0 4.928 15.256c10.215-3.299 20.894-4.972 31.739-4.972zM420.845 217.333a80.584 80.584 0 0 0-19.009-3.417c-4.407-.261-8.211 3.118-8.468 7.539s3.118 8.211 7.539 8.468a64.617 64.617 0 0 1 15.225 2.735 7.997 7.997 0 0 0 2.359.356 8.017 8.017 0 0 0 2.354-15.681zM449.364 232.992a8.015 8.015 0 0 0-11.3.911 8.016 8.016 0 0 0 .911 11.301c14.481 12.321 22.788 30.282 22.788 49.276a8.017 8.017 0 0 0 16.034 0c-.002-23.703-10.365-46.115-28.433-61.488zM114.906 213.779c-15.159 0-29.935 4.23-42.733 12.23a8.018 8.018 0 0 0 8.501 13.594c10.245-6.405 22.082-9.791 34.232-9.791a8.017 8.017 0 0 0 0-16.033zM284.189 197.088a8.019 8.019 0 0 0-10.141 5.071L222.741 356.08c-1.4 4.2.87 8.74 5.071 10.141.841.28 1.695.414 2.536.414a8.021 8.021 0 0 0 7.604-5.483L289.26 207.23a8.02 8.02 0 0 0-5.071-10.142zM201.81 224.678a8.016 8.016 0 0 0-11.337 0l-51.307 51.307a8.016 8.016 0 0 0 0 11.337l51.307 51.307c1.565 1.565 3.617 2.348 5.668 2.348s4.103-.782 5.668-2.348a8.016 8.016 0 0 0 0-11.337l-45.639-45.639 45.639-45.639a8.014 8.014 0 0 0 .001-11.336zM321.526 224.678a8.016 8.016 0 0 0-11.337 0 8.016 8.016 0 0 0 0 11.337l45.639 45.639-45.639 45.639a8.016 8.016 0 0 0 5.668 13.685 7.988 7.988 0 0 0 5.668-2.348l51.307-51.307a8.016 8.016 0 0 0 0-11.337l-51.306-51.308z"/></svg>