<svg version="1.1" id="Layer_1" xmlns="http://www.w3.org/2000/svg" x="0" y="0" viewBox="0 0 256 256" style="enable-background:new 0 0 256 256" xml:space="preserve"><style>.st1{fill:#f85252}.st4{fill:#d8d6d7}.st5{fill:#fff}.st8{fill:#491352}</style><path class="st1" d="M246.5 235.439H9.5a5 5 0 0 1-5-5V25.561a5 5 0 0 1 5-5h237a5 5 0 0 1 5 5V230.44a5 5 0 0 1-5 4.999z"/><path class="st4" d="M251.5 55.74v174.7c0 2.76-2.24 5-5 5H9.5c-2.76 0-5-2.24-5-5V25.56c0-2.76 2.24-5 5-5h59.95l25.51 31.7a9.345 9.345 0 0 0 7.28 3.48H251.5z"/><path class="st5" d="M251.5 55.74v174.7a5 5 0 0 1-5 5H24.73a5 5 0 0 1-5-5V25.56a5 5 0 0 1 5-5h44.72l25.51 31.7a9.345 9.345 0 0 0 7.28 3.48H251.5z"/><circle class="st5" cx="205.342" cy="38.457" r="6.896"/><circle class="st5" cx="230.584" cy="38.457" r="6.896"/><circle class="st1" cx="44.322" cy="178.219" r="13.166"/><path class="st4" d="M219.844 147.67H36.156a5 5 0 0 1-5-5V83.118a5 5 0 0 1 5-5h183.688a5 5 0 0 1 5 5v59.552a5 5 0 0 1-5 5z"/><circle class="st1" cx="147.415" cy="178.219" r="13.166"/><path d="m104.344 95.362 9.923 37.034c.996 3.718 5.644 4.963 8.365 2.241l27.111-27.111c2.722-2.722 1.476-7.369-2.241-8.365l-37.034-9.923c-3.718-.996-7.12 2.406-6.124 6.124z" style="fill:#40c4df"/><path d="m150.367 127.006-8.255 8.255a5 5 0 0 1-7.071 0l-6.516-6.516 15.326-15.326 6.516 6.516a5.001 5.001 0 0 1 0 7.071z" style="fill:#1c868e"/><path class="st8" d="M246.5 18.561H9.5c-3.86 0-7 3.14-7 7v204.878c0 3.86 3.14 7 7 7h237c3.859 0 7-3.14 7-7V25.561c0-3.86-3.141-7-7-7zm3 211.659a3.223 3.223 0 0 1-3.22 3.219H9.719A3.223 3.223 0 0 1 6.5 230.22V25.78a3.223 3.223 0 0 1 3.219-3.219h58.773L93.404 53.51a11.284 11.284 0 0 0 8.832 4.229H249.5V230.22zm0-176.481H102.235a7.304 7.304 0 0 1-5.715-2.737L73.627 22.561H246.5c1.654 0 3 1.346 3 3v28.178z"/><path class="st8" d="M60.76 39.618a2 2 0 0 0-2-2H24.217a2 2 0 0 0 0 4H58.76a2 2 0 0 0 2-2zM205.343 29.561c-4.905 0-8.896 3.991-8.896 8.896 0 4.905 3.991 8.896 8.896 8.896 4.905 0 8.896-3.991 8.896-8.896 0-4.905-3.991-8.896-8.896-8.896zm0 13.793c-2.7 0-4.896-2.196-4.896-4.896s2.196-4.896 4.896-4.896 4.896 2.197 4.896 4.896-2.196 4.896-4.896 4.896zM44.322 193.385c8.363 0 15.166-6.803 15.166-15.166s-6.803-15.167-15.166-15.167-15.167 6.804-15.167 15.167 6.804 15.166 15.167 15.166zm0-26.332c6.157 0 11.166 5.009 11.166 11.167 0 6.157-5.009 11.166-11.166 11.166s-11.167-5.009-11.167-11.166c.001-6.158 5.01-11.167 11.167-11.167zM230.584 29.561c-4.905 0-8.896 3.991-8.896 8.896 0 4.905 3.99 8.896 8.896 8.896s8.896-3.991 8.896-8.896c0-4.905-3.991-8.896-8.896-8.896zm0 13.793c-2.699 0-4.896-2.196-4.896-4.896s2.196-4.896 4.896-4.896c2.7 0 4.896 2.197 4.896 4.896s-2.196 4.896-4.896 4.896zM29.156 83.118v59.552c0 3.86 3.14 7 7 7h183.688c3.859 0 7-3.14 7-7V83.118c0-3.86-3.141-7-7-7H36.156c-3.86 0-7 3.14-7 7zm193.688 0v59.552c0 1.654-1.346 3-3 3H36.156c-1.654 0-3-1.346-3-3V83.118c0-1.654 1.346-3 3-3h183.688c1.654 0 3 1.345 3 3zM69.602 167.053h52.149c2.642 0 2.646-4 0-4H69.602a2 2 0 0 0 0 4zM69.602 180.219h52.149c2.642 0 2.646-4 0-4H69.602a2 2 0 0 0 0 4zM69.602 189.385c-2.642 0-2.646 4 0 4h52.149c2.642 0 2.646-4 0-4H69.602zM162.581 178.219c0-8.363-6.804-15.167-15.166-15.167s-15.166 6.804-15.166 15.167 6.804 15.166 15.166 15.166 15.166-6.803 15.166-15.166zm-26.332 0c0-6.157 5.009-11.167 11.166-11.167s11.166 5.009 11.166 11.167c0 6.157-5.009 11.166-11.166 11.166s-11.166-5.009-11.166-11.166zM224.844 163.053h-52.149c-2.642 0-2.646 4 0 4h52.149c2.642 0 2.646-4 0-4zM224.844 176.219h-52.149c-2.642 0-2.646 4 0 4h52.149c2.642 0 2.646-4 0-4zM224.844 189.385h-52.149c-2.642 0-2.646 4 0 4h52.149c2.642 0 2.646-4 0-4zM224.844 205H31.156c-2.642 0-2.646 4 0 4h193.688c2.642 0 2.646-4 0-4zM224.844 219H31.156c-2.642 0-2.646 4 0 4h193.688c2.642 0 2.646-4 0-4z"/><path class="st8" d="M112.336 132.914c1.396 5.212 7.902 6.946 11.711 3.138l4.478-4.479 5.102 5.103c2.728 2.729 7.171 2.729 9.899 0l8.255-8.255a7.008 7.008 0 0 0 0-9.899l-5.102-5.102c4.152-4.152 7.573-6.448 6.291-11.24a6.93 6.93 0 0 0-4.95-4.95l-37.034-9.923c-5.21-1.396-9.969 3.367-8.573 8.573l9.923 37.034zm36.617-11.565a3.005 3.005 0 0 1 0 4.243l-8.255 8.254a3.004 3.004 0 0 1-4.243 0l-5.102-5.102 12.497-12.497 5.103 5.102zM109.951 91.17l37.034 9.923c2.23.597 2.979 3.384 1.345 5.019l-27.11 27.111c-1.633 1.635-4.422.885-5.02-1.345l-9.923-37.034c-.598-2.229 1.438-4.271 3.674-3.674z"/></svg>